<svg xmlns="http://www.w3.org/2000/svg" xmlns:xlink="http://www.w3.org/1999/xlink" width="2000" zoomAndPan="magnify" viewBox="0 0 1500 1499.999933" height="2000" preserveAspectRatio="xMidYMid meet" version="1.0"><defs><g/><clipPath id="b70d146020"><path d="M 352 294.933594 L 1148 294.933594 L 1148 984 L 352 984 Z M 352 294.933594 " clip-rule="nonzero"/></clipPath><clipPath id="8c68950053"><path d="M 364 315 L 1123 315 L 1123 984.933594 L 364 984.933594 Z M 364 315 " clip-rule="nonzero"/></clipPath><clipPath id="1310c218d0"><path d="M 376 337 L 1098 337 L 1098 984.933594 L 376 984.933594 Z M 376 337 " clip-rule="nonzero"/></clipPath></defs><g clip-path="url(#b70d146020)"><path stroke-linecap="round" transform="matrix(0.588839, 0, 0, 0.58885, 679.465055, 604.84452)" fill="none" stroke-linejoin="round" d="M -552.212112 640.461981 L 119.998661 -523.837616 L 792.209434 640.461981 Z M -552.212112 640.461981 " stroke="#030303" stroke-width="5" stroke-opacity="1" stroke-miterlimit="4"/><path stroke-linecap="round" transform="matrix(0.588839, 0, 0, 0.58885, 679.465055, 604.84452)" fill="none" stroke-linejoin="round" d="M -552.212112 640.461981 L 119.998661 -523.837616 L 792.209434 640.461981 Z M -552.212112 640.461981 " stroke="#030303" stroke-width="5" stroke-opacity="1" stroke-miterlimit="4"/></g><g clip-path="url(#8c68950053)"><path stroke-linecap="round" transform="matrix(0.561994, 0.0176421, -0.0176417, 0.562004, 687.13579, 609.49488)" fill="none" stroke-linejoin="round" d="M -552.206575 640.462299 L 119.999703 -523.841267 L 792.210571 640.463134 Z M -552.206575 640.462299 " stroke="#030303" stroke-width="5" stroke-opacity="1" stroke-miterlimit="4"/></g><g clip-path="url(#1310c218d0)"><path stroke-linecap="round" transform="matrix(0.53451, 0.0336291, -0.0336285, 0.53452, 694.47103, 614.519279)" fill="none" stroke-linejoin="round" d="M -552.213138 640.463099 L 119.99672 -523.841889 L 792.21222 640.461366 Z M -552.213138 640.463099 " stroke="#030303" stroke-width="5" stroke-opacity="1" stroke-miterlimit="4"/></g><path stroke-linecap="round" transform="matrix(0.506453, 0.0478747, -0.0478739, 0.506461, 701.433381, 619.890623)" fill="none" stroke-linejoin="round" d="M -552.207286 640.456299 L 119.998709 -523.837446 L 792.20916 640.463489 Z M -552.207286 640.456299 " stroke="#030303" stroke-width="5" stroke-opacity="1" stroke-miterlimit="4"/><path stroke-linecap="round" transform="matrix(0.477902, 0.0603741, -0.060373, 0.47791, 708.01274, 625.596142)" fill="none" stroke-linejoin="round" d="M -552.207305 640.460734 L 120.003021 -523.841143 L 792.211109 640.460554 Z M -552.207305 640.460734 " stroke="#030303" stroke-width="5" stroke-opacity="1" stroke-miterlimit="4"/><path stroke-linecap="round" transform="matrix(0.448929, 0.0711047, -0.0711034, 0.448937, 714.198836, 631.622926)" fill="none" stroke-linejoin="round" d="M -552.208284 640.455985 L 119.998431 -523.839501 L 792.207315 640.463668 Z M -552.208284 640.455985 " stroke="#030303" stroke-width="5" stroke-opacity="1" stroke-miterlimit="4"/><path stroke-linecap="round" transform="matrix(0.41959, 0.0800425, -0.080041, 0.419597, 719.974531, 637.952445)" fill="none" stroke-linejoin="round" d="M -552.214112 640.462759 L 119.99897 -523.844124 L 792.206571 640.459531 Z M -552.214112 640.462759 " stroke="#030303" stroke-width="5" stroke-opacity="1" stroke-miterlimit="4"/><path stroke-linecap="round" transform="matrix(0.38997, 0.0871631, -0.0871616, 0.389977, 725.324803, 644.570372)" fill="none" stroke-linejoin="round" d="M -552.208632 640.460274 L 120.004141 -523.836153 L 792.21401 640.459087 Z M -552.208632 640.460274 " stroke="#030303" stroke-width="5" stroke-opacity="1" stroke-miterlimit="4"/><path stroke-linecap="round" transform="matrix(0.360141, 0.0924702, -0.0924685, 0.360148, 730.246434, 651.4661)" fill="none" stroke-linejoin="round" d="M -552.205617 640.456767 L 120.000324 -523.841399 L 792.211963 640.461736 Z M -552.205617 640.456767 " stroke="#030303" stroke-width="5" stroke-opacity="1" stroke-miterlimit="4"/><path stroke-linecap="round" transform="matrix(0.330163, 0.0959542, -0.0959525, 0.330169, 734.732898, 658.629307)" fill="none" stroke-linejoin="round" d="M -552.207676 640.456778 L 120.002229 -523.842626 L 792.205572 640.462393 Z M -552.207676 640.456778 " stroke="#030303" stroke-width="5" stroke-opacity="1" stroke-miterlimit="4"/><path stroke-linecap="round" transform="matrix(0.300107, 0.0975183, -0.0975165, 0.300112, 738.722778, 666.011179)" fill="none" stroke-linejoin="round" d="M -552.204367 640.459566 L 120.006297 -523.837154 L 792.211453 640.460854 Z M -552.204367 640.459566 " stroke="#030303" stroke-width="5" stroke-opacity="1" stroke-miterlimit="4"/><path stroke-linecap="round" transform="matrix(0.270033, 0.0972196, -0.0972179, 0.270038, 742.253297, 673.634442)" fill="none" stroke-linejoin="round" d="M -552.205733 640.462771 L 119.993406 -523.839057 L 792.204072 640.463165 Z M -552.205733 640.462771 " stroke="#030303" stroke-width="5" stroke-opacity="1" stroke-miterlimit="4"/><path stroke-linecap="round" transform="matrix(0.240008, 0.0950277, -0.095026, 0.240013, 745.302497, 681.470849)" fill="none" stroke-linejoin="round" d="M -552.212187 640.464261 L 120.001145 -523.846645 L 792.208634 640.466876 Z M -552.212187 640.464261 " stroke="#030303" stroke-width="5" stroke-opacity="1" stroke-miterlimit="4"/><path stroke-linecap="round" transform="matrix(0.21008, 0.0909125, -0.0909109, 0.210084, 747.858713, 689.521097)" fill="none" stroke-linejoin="round" d="M -552.214449 640.454817 L 119.998872 -523.845672 L 792.214333 640.460201 Z M -552.214449 640.454817 " stroke="#030303" stroke-width="5" stroke-opacity="1" stroke-miterlimit="4"/><path stroke-linecap="round" transform="matrix(0.180293, 0.0848412, -0.0848397, 0.180297, 749.902001, 697.77016)" fill="none" stroke-linejoin="round" d="M -552.214604 640.471681 L 120.002536 -523.84448 L 792.199948 640.454443 Z M -552.214604 640.471681 " stroke="#030303" stroke-width="5" stroke-opacity="1" stroke-miterlimit="4"/><path stroke-linecap="round" transform="matrix(0.150667, 0.0767698, -0.0767684, 0.150669, 751.423265, 706.210359)" fill="none" stroke-linejoin="round" d="M -552.21592 640.47296 L 120.005675 -523.843447 L 792.222101 640.464317 Z M -552.21592 640.47296 " stroke="#030303" stroke-width="5" stroke-opacity="1" stroke-miterlimit="4"/><path stroke-linecap="round" transform="matrix(0.121225, 0.0666451, -0.0666439, 0.121227, 752.397857, 714.857486)" fill="none" stroke-linejoin="round" d="M -552.214579 640.453361 L 119.999993 -523.838396 L 792.2113 640.471465 Z M -552.214579 640.453361 " stroke="#030303" stroke-width="5" stroke-opacity="1" stroke-miterlimit="4"/><path stroke-linecap="round" transform="matrix(0.0919061, 0.0543567, -0.0543558, 0.0919077, 752.810945, 723.733286)" fill="none" stroke-linejoin="round" d="M -552.206717 640.47845 L 119.984192 -523.850146 L 792.229825 640.467016 Z M -552.206717 640.47845 " stroke="#030303" stroke-width="5" stroke-opacity="1" stroke-miterlimit="4"/><path stroke-linecap="round" transform="matrix(0.0625878, 0.0397232, -0.0397225, 0.0625889, 752.638553, 732.882445)" fill="none" stroke-linejoin="round" d="M -552.214664 640.441541 L 120.001247 -523.830797 L 792.219649 640.45792 Z M -552.214664 640.441541 " stroke="#030303" stroke-width="5" stroke-opacity="1" stroke-miterlimit="4"/><path stroke-linecap="round" transform="matrix(0.0328572, 0.0223292, -0.0223288, 0.0328578, 751.815785, 742.476372)" fill="none" stroke-linejoin="round" d="M -552.189196 640.485806 L 120.058387 -523.828503 L 792.265306 640.453904 Z M -552.189196 640.485806 " stroke="#030303" stroke-width="5" stroke-opacity="1" stroke-miterlimit="4"/><g fill="#000000" fill-opacity="1"><g transform="translate(300.000008, 1170.567887)"><g><path d="M 3.59375 0 L 32.703125 -108 L 58.046875 -108 L 86.40625 0 L 67.046875 0 L 60.59375 -27.15625 L 29.25 -27.15625 L 22.796875 0 Z M 32.84375 -42 L 57 -42 L 47.84375 -80.546875 C 47.445312 -82.347656 47.070312 -84.148438 46.71875 -85.953125 C 46.375 -87.753906 46.101562 -89.351562 45.90625 -90.75 C 45.695312 -92.351562 45.492188 -93.953125 45.296875 -95.546875 L 44.546875 -95.546875 C 44.347656 -93.953125 44.148438 -92.351562 43.953125 -90.75 C 43.753906 -89.351562 43.503906 -87.753906 43.203125 -85.953125 C 42.898438 -84.148438 42.5 -82.347656 42 -80.546875 Z M 32.84375 -42 "/></g></g></g><g fill="#000000" fill-opacity="1"><g transform="translate(390.000023, 1170.567887)"><g><path d="M 14.25 -82.5 L 31.953125 -82.5 L 31.953125 -68.25 L 33.296875 -68.25 C 34.296875 -73.25 36.796875 -77.125 40.796875 -79.875 C 44.796875 -82.625 49.894531 -84 56.09375 -84 C 65 -84 71.953125 -81.25 76.953125 -75.75 C 81.953125 -70.25 84.453125 -62.648438 84.453125 -52.953125 L 84.453125 -46.953125 L 64.796875 -46.953125 L 64.796875 -51.296875 C 64.796875 -56.597656 63.34375 -60.722656 60.4375 -63.671875 C 57.539062 -66.617188 53.546875 -68.09375 48.453125 -68.09375 C 43.648438 -68.09375 39.875 -66.59375 37.125 -63.59375 C 34.375 -60.59375 33 -56.492188 33 -51.296875 L 33 0 L 14.25 0 Z M 14.25 -82.5 "/></g></g></g><g fill="#000000" fill-opacity="1"><g transform="translate(480.000039, 1170.567887)"><g><path d="M 6.75 -82.5 L 29.546875 -82.5 L 29.546875 -108 L 48.296875 -108 L 48.296875 -82.5 L 79.65625 -82.5 L 79.65625 -65.546875 L 48.296875 -65.546875 L 48.296875 -25.5 C 48.296875 -22.894531 49.070312 -20.816406 50.625 -19.265625 C 52.175781 -17.722656 54.351562 -16.953125 57.15625 -16.953125 L 78.15625 -16.953125 L 78.15625 0 L 55.796875 0 C 47.703125 0 41.300781 -2.296875 36.59375 -6.890625 C 31.894531 -11.492188 29.546875 -17.695312 29.546875 -25.5 L 29.546875 -65.546875 L 6.75 -65.546875 Z M 6.75 -82.5 "/></g></g></g><g fill="#000000" fill-opacity="1"><g transform="translate(570.000054, 1170.567887)"><g><path d="M 12.453125 -17.09375 L 42 -17.09375 L 42 -65.546875 L 16.203125 -65.546875 L 16.203125 -82.5 L 60 -82.5 L 60 -17.09375 L 83.84375 -17.09375 L 83.84375 0 L 12.453125 0 Z M 36.59375 -104.84375 C 36.59375 -107.75 37.566406 -110.125 39.515625 -111.96875 C 41.472656 -113.820312 44.050781 -114.75 47.25 -114.75 L 51.15625 -114.75 C 54.351562 -114.75 56.925781 -113.820312 58.875 -111.96875 C 60.820312 -110.125 61.796875 -107.75 61.796875 -104.84375 C 61.796875 -101.84375 60.796875 -99.441406 58.796875 -97.640625 C 56.796875 -95.847656 54.195312 -94.953125 51 -94.953125 L 47.25 -94.953125 C 44.050781 -94.953125 41.472656 -95.847656 39.515625 -97.640625 C 37.566406 -99.441406 36.59375 -101.84375 36.59375 -104.84375 Z M 36.59375 -104.84375 "/></g></g></g><g fill="#000000" fill-opacity="1"><g transform="translate(660.00007, 1170.567887)"><g><path d="M 8.09375 -57.296875 L 8.09375 -74.25 L 30.75 -74.25 L 30.75 -85.953125 C 30.75 -93.148438 33.125 -98.875 37.875 -103.125 C 42.625 -107.375 49 -109.5 57 -109.5 L 81.15625 -109.5 L 81.15625 -93 L 57.453125 -93 C 55.046875 -93 53.144531 -92.320312 51.75 -90.96875 C 50.351562 -89.625 49.65625 -87.800781 49.65625 -85.5 L 49.65625 -74.25 L 81.15625 -74.25 L 81.15625 -57.296875 L 49.65625 -57.296875 L 49.65625 0 L 30.75 0 L 30.75 -57.296875 Z M 8.09375 -57.296875 "/></g></g><g transform="translate(750.000062, 1170.567887)"><g><path d="M 12.453125 -17.09375 L 42 -17.09375 L 42 -65.546875 L 16.203125 -65.546875 L 16.203125 -82.5 L 60 -82.5 L 60 -17.09375 L 83.84375 -17.09375 L 83.84375 0 L 12.453125 0 Z M 36.59375 -104.84375 C 36.59375 -107.75 37.566406 -110.125 39.515625 -111.96875 C 41.472656 -113.820312 44.050781 -114.75 47.25 -114.75 L 51.15625 -114.75 C 54.351562 -114.75 56.925781 -113.820312 58.875 -111.96875 C 60.820312 -110.125 61.796875 -107.75 61.796875 -104.84375 C 61.796875 -101.84375 60.796875 -99.441406 58.796875 -97.640625 C 56.796875 -95.847656 54.195312 -94.953125 51 -94.953125 L 47.25 -94.953125 C 44.050781 -94.953125 41.472656 -95.847656 39.515625 -97.640625 C 37.566406 -99.441406 36.59375 -101.84375 36.59375 -104.84375 Z M 36.59375 -104.84375 "/></g></g></g><g fill="#000000" fill-opacity="1"><g transform="translate(840.000099, 1170.567887)"><g><path d="M 8.703125 -52.046875 C 8.703125 -56.847656 9.375 -61.222656 10.71875 -65.171875 C 12.070312 -69.117188 14 -72.492188 16.5 -75.296875 C 19 -78.097656 22 -80.25 25.5 -81.75 C 29 -83.25 32.898438 -84 37.203125 -84 C 43.398438 -84 48.5 -82.523438 52.5 -79.578125 C 56.5 -76.628906 59 -72.601562 60 -67.5 L 61.046875 -67.5 L 61.046875 -82.5 L 79.046875 -82.5 L 79.046875 -5.09375 C 79.046875 -0.5 78.242188 3.617188 76.640625 7.265625 C 75.046875 10.921875 72.75 14.046875 69.75 16.640625 C 66.75 19.242188 63.125 21.242188 58.875 22.640625 C 54.625 24.046875 49.898438 24.75 44.703125 24.75 L 22.65625 24.75 L 22.65625 9.15625 L 44.703125 9.15625 C 49.503906 9.15625 53.300781 7.90625 56.09375 5.40625 C 58.894531 2.90625 60.296875 -0.59375 60.296875 -5.09375 L 60.296875 -6.75 L 60.90625 -23.25 L 60 -23.25 C 59 -18.144531 56.472656 -14.117188 52.421875 -11.171875 C 48.367188 -8.222656 43.296875 -6.75 37.203125 -6.75 C 32.898438 -6.75 29 -7.5 25.5 -9 C 22 -10.5 19 -12.648438 16.5 -15.453125 C 14 -18.253906 12.070312 -21.628906 10.71875 -25.578125 C 9.375 -29.523438 8.703125 -33.898438 8.703125 -38.703125 Z M 27.59375 -39.15625 C 27.59375 -34.050781 29.039062 -30.070312 31.9375 -27.21875 C 34.84375 -24.375 38.847656 -22.953125 43.953125 -22.953125 C 48.953125 -22.953125 52.925781 -24.398438 55.875 -27.296875 C 58.820312 -30.203125 60.296875 -34.15625 60.296875 -39.15625 L 60.296875 -51.59375 C 60.296875 -56.59375 58.820312 -60.539062 55.875 -63.4375 C 52.925781 -66.34375 48.953125 -67.796875 43.953125 -67.796875 C 38.847656 -67.796875 34.84375 -66.34375 31.9375 -63.4375 C 29.039062 -60.539062 27.59375 -56.59375 27.59375 -51.59375 Z M 27.59375 -39.15625 "/></g></g></g><g fill="#000000" fill-opacity="1"><g transform="translate(930.000137, 1170.567887)"><g><path d="M 45 1.5 C 39.601562 1.5 34.675781 0.722656 30.21875 -0.828125 C 25.769531 -2.378906 21.992188 -4.550781 18.890625 -7.34375 C 15.796875 -10.144531 13.398438 -13.546875 11.703125 -17.546875 C 10.003906 -21.546875 9.15625 -26 9.15625 -30.90625 L 9.15625 -51.75 C 9.15625 -56.644531 10.003906 -61.09375 11.703125 -65.09375 C 13.398438 -69.09375 15.796875 -72.492188 18.890625 -75.296875 C 21.992188 -78.097656 25.769531 -80.25 30.21875 -81.75 C 34.675781 -83.25 39.601562 -84 45 -84 C 50.394531 -84 55.289062 -83.222656 59.6875 -81.671875 C 64.09375 -80.117188 67.84375 -77.941406 70.9375 -75.140625 C 74.039062 -72.347656 76.441406 -68.953125 78.140625 -64.953125 C 79.847656 -60.953125 80.703125 -56.5 80.703125 -51.59375 L 80.703125 -36.59375 L 27.75 -36.59375 L 27.75 -31.203125 C 27.75 -25.703125 29.273438 -21.398438 32.328125 -18.296875 C 35.378906 -15.203125 39.601562 -13.65625 45 -13.65625 C 49.101562 -13.65625 52.578125 -14.28125 55.421875 -15.53125 C 58.273438 -16.78125 60.300781 -18.601562 61.5 -21 L 79.953125 -21 C 79.046875 -17.601562 77.539062 -14.503906 75.4375 -11.703125 C 73.34375 -8.898438 70.769531 -6.523438 67.71875 -4.578125 C 64.675781 -2.628906 61.226562 -1.128906 57.375 -0.078125 C 53.519531 0.972656 49.394531 1.5 45 1.5 Z M 62.25 -49.203125 L 62.25 -51.59375 C 62.25 -57.09375 60.75 -61.367188 57.75 -64.421875 C 54.75 -67.472656 50.5 -69 45 -69 C 39.601562 -69 35.378906 -67.472656 32.328125 -64.421875 C 29.273438 -61.367188 27.75 -57.144531 27.75 -51.75 L 27.75 -49.203125 Z M 62.25 -49.203125 "/></g></g><g transform="translate(1020.000129, 1170.567887)"><g><path d="M 10.796875 0 L 10.796875 -82.5 L 28.65625 -82.5 L 28.65625 -68.25 L 30 -68.25 C 30.894531 -73.25 33.242188 -77.125 37.046875 -79.875 C 40.847656 -82.625 45.75 -84 51.75 -84 C 60.050781 -84 66.648438 -81.296875 71.546875 -75.890625 C 76.453125 -70.492188 78.90625 -63.195312 78.90625 -54 L 78.90625 0 L 60.15625 0 L 60.15625 -51.75 C 60.15625 -56.75 58.800781 -60.671875 56.09375 -63.515625 C 53.394531 -66.367188 49.695312 -67.796875 45 -67.796875 C 40.195312 -67.796875 36.421875 -66.320312 33.671875 -63.375 C 30.921875 -60.425781 29.546875 -56.398438 29.546875 -51.296875 L 29.546875 0 Z M 10.796875 0 "/></g></g><g transform="translate(1110.000121, 1170.567887)"><g><path d="M 11.84375 -82.5 L 77.703125 -82.5 L 77.703125 -64.796875 L 32.40625 -15.59375 C 33.601562 -15.695312 34.851562 -15.847656 36.15625 -16.046875 C 37.25 -16.148438 38.421875 -16.222656 39.671875 -16.265625 C 40.921875 -16.316406 42.144531 -16.34375 43.34375 -16.34375 L 79.34375 -16.34375 L 79.34375 0 L 10.65625 0 L 10.65625 -17.703125 L 56.09375 -66.75 C 54.800781 -66.644531 53.503906 -66.546875 52.203125 -66.453125 C 51.097656 -66.347656 49.867188 -66.269531 48.515625 -66.21875 C 47.171875 -66.175781 45.898438 -66.15625 44.703125 -66.15625 L 11.84375 -66.15625 Z M 11.84375 -82.5 "/></g></g></g></svg>