<svg xmlns="http://www.w3.org/2000/svg" xmlns:xlink="http://www.w3.org/1999/xlink" width="2000" zoomAndPan="magnify" viewBox="0 0 1500 1499.999933" height="2000" preserveAspectRatio="xMidYMid meet" version="1.0"><defs><clipPath id="2c9072f753"><path d="M 158 236.410156 L 1342 236.410156 L 1342 1262 L 158 1262 Z M 158 236.410156 " clip-rule="nonzero"/></clipPath><clipPath id="d21eab92b5"><path d="M 175 267 L 1304 267 L 1304 1263.910156 L 175 1263.910156 Z M 175 267 " clip-rule="nonzero"/></clipPath><clipPath id="3293128d53"><path d="M 193 299 L 1268 299 L 1268 1263.910156 L 193 1263.910156 Z M 193 299 " clip-rule="nonzero"/></clipPath></defs><rect x="-150" width="1800" fill="#ffffff" y="-149.999993" height="1799.99992" fill-opacity="1"/><rect x="-150" width="1800" fill="#e6e2de" y="-149.999993" height="1799.99992" fill-opacity="1"/><g clip-path="url(#2c9072f753)"><path stroke-linecap="round" transform="matrix(0.876326, 0, 0, 0.876874, 644.586434, 697.909552)" fill="none" stroke-linejoin="round" d="M -552.208461 640.459206 L 120.000634 -523.841544 L 792.209729 640.459206 Z M -552.208461 640.459206 " stroke="#030303" stroke-width="5" stroke-opacity="1" stroke-miterlimit="4"/><path stroke-linecap="round" transform="matrix(0.876326, 0, 0, 0.876874, 644.586434, 697.909552)" fill="none" stroke-linejoin="round" d="M -552.208461 640.459206 L 120.000634 -523.841544 L 792.209729 640.459206 Z M -552.208461 640.459206 " stroke="#030303" stroke-width="5" stroke-opacity="1" stroke-miterlimit="4"/></g><g clip-path="url(#d21eab92b5)"><path stroke-linecap="round" transform="matrix(0.836374, 0.0262713, -0.0262549, 0.836897, 656.002177, 704.834511)" fill="none" stroke-linejoin="round" d="M -552.21089 640.46191 L 120.000762 -523.840963 L 792.208303 640.458015 Z M -552.21089 640.46191 " stroke="#030303" stroke-width="5" stroke-opacity="1" stroke-miterlimit="4"/></g><g clip-path="url(#3293128d53)"><path stroke-linecap="round" transform="matrix(0.795472, 0.0500782, -0.0500468, 0.79597, 666.9186, 712.316583)" fill="none" stroke-linejoin="round" d="M -552.210511 640.459464 L 119.997433 -523.842243 L 792.210693 640.461944 Z M -552.210511 640.459464 " stroke="#030303" stroke-width="5" stroke-opacity="1" stroke-miterlimit="4"/></g><path stroke-linecap="round" transform="matrix(0.753715, 0.0712917, -0.0712471, 0.754187, 677.280263, 720.315086)" fill="none" stroke-linejoin="round" d="M -552.208445 640.458309 L 119.998279 -523.839581 L 792.209672 640.460737 Z M -552.208445 640.458309 " stroke="#030303" stroke-width="5" stroke-opacity="1" stroke-miterlimit="4"/><path stroke-linecap="round" transform="matrix(0.711226, 0.0899049, -0.0898487, 0.711671, 687.071758, 728.811421)" fill="none" stroke-linejoin="round" d="M -552.210271 640.459086 L 119.998622 -523.842054 L 792.212048 640.460393 Z M -552.210271 640.459086 " stroke="#030303" stroke-width="5" stroke-opacity="1" stroke-miterlimit="4"/><path stroke-linecap="round" transform="matrix(0.668108, 0.105884, -0.105818, 0.668526, 696.278181, 737.7861)" fill="none" stroke-linejoin="round" d="M -552.209734 640.460759 L 120.000386 -523.837997 L 792.211721 640.458814 Z M -552.209734 640.460759 " stroke="#030303" stroke-width="5" stroke-opacity="1" stroke-miterlimit="4"/><path stroke-linecap="round" transform="matrix(0.624444, 0.119194, -0.119119, 0.624835, 704.873589, 747.211548)" fill="none" stroke-linejoin="round" d="M -552.210387 640.461305 L 120.001763 -523.837284 L 792.210021 640.46086 Z M -552.210387 640.461305 " stroke="#030303" stroke-width="5" stroke-opacity="1" stroke-miterlimit="4"/><path stroke-linecap="round" transform="matrix(0.580364, 0.129797, -0.129716, 0.580727, 712.835996, 757.066547)" fill="none" stroke-linejoin="round" d="M -552.212843 640.461632 L 119.999066 -523.840793 L 792.208198 640.457962 Z M -552.212843 640.461632 " stroke="#030303" stroke-width="5" stroke-opacity="1" stroke-miterlimit="4"/><path stroke-linecap="round" transform="matrix(0.535971, 0.1377, -0.137614, 0.536307, 720.160507, 767.335234)" fill="none" stroke-linejoin="round" d="M -552.212159 640.457823 L 120.003505 -523.838087 L 792.208527 640.461541 Z M -552.212159 640.457823 " stroke="#030303" stroke-width="5" stroke-opacity="1" stroke-miterlimit="4"/><path stroke-linecap="round" transform="matrix(0.491357, 0.142888, -0.142799, 0.491664, 726.837451, 778.002153)" fill="none" stroke-linejoin="round" d="M -552.213017 640.458907 L 120.001811 -523.843541 L 792.206155 640.458602 Z M -552.213017 640.458907 " stroke="#030303" stroke-width="5" stroke-opacity="1" stroke-miterlimit="4"/><path stroke-linecap="round" transform="matrix(0.446627, 0.145217, -0.145127, 0.446907, 732.77529, 788.994752)" fill="none" stroke-linejoin="round" d="M -552.209673 640.462521 L 120.001262 -523.842137 L 792.205774 640.457978 Z M -552.209673 640.462521 " stroke="#030303" stroke-width="5" stroke-opacity="1" stroke-miterlimit="4"/><path stroke-linecap="round" transform="matrix(0.40187, 0.144773, -0.144682, 0.402122, 738.029442, 800.346775)" fill="none" stroke-linejoin="round" d="M -552.210324 640.461663 L 119.995964 -523.842956 L 792.205472 640.45701 Z M -552.210324 640.461663 " stroke="#030303" stroke-width="5" stroke-opacity="1" stroke-miterlimit="4"/><path stroke-linecap="round" transform="matrix(0.357186, 0.141509, -0.14142, 0.35741, 742.567409, 812.016126)" fill="none" stroke-linejoin="round" d="M -552.213069 640.463582 L 120.002862 -523.835887 L 792.21195 640.459133 Z M -552.213069 640.463582 " stroke="#030303" stroke-width="5" stroke-opacity="1" stroke-miterlimit="4"/><path stroke-linecap="round" transform="matrix(0.312647, 0.135381, -0.135296, 0.312842, 746.371673, 824.004101)" fill="none" stroke-linejoin="round" d="M -552.206768 640.46094 L 119.998128 -523.836933 L 792.211184 640.459911 Z M -552.206768 640.46094 " stroke="#030303" stroke-width="5" stroke-opacity="1" stroke-miterlimit="4"/><path stroke-linecap="round" transform="matrix(0.268317, 0.12634, -0.126261, 0.268485, 749.412497, 836.287996)" fill="none" stroke-linejoin="round" d="M -552.213126 640.463257 L 119.996173 -523.84099 L 792.213961 640.452972 Z M -552.213126 640.463257 " stroke="#030303" stroke-width="5" stroke-opacity="1" stroke-miterlimit="4"/><path stroke-linecap="round" transform="matrix(0.224226, 0.11432, -0.114249, 0.224366, 751.676465, 848.856531)" fill="none" stroke-linejoin="round" d="M -552.213994 640.464372 L 119.993043 -523.836711 L 792.205806 640.468443 Z M -552.213994 640.464372 " stroke="#030303" stroke-width="5" stroke-opacity="1" stroke-miterlimit="4"/><path stroke-linecap="round" transform="matrix(0.18041, 0.0992432, -0.0991812, 0.180523, 753.126832, 861.733202)" fill="none" stroke-linejoin="round" d="M -552.214848 640.458102 L 119.999248 -523.835334 L 792.209194 640.462648 Z M -552.214848 640.458102 " stroke="#030303" stroke-width="5" stroke-opacity="1" stroke-miterlimit="4"/><path stroke-linecap="round" transform="matrix(0.136777, 0.0809443, -0.0808936, 0.136863, 753.74152, 874.950481)" fill="none" stroke-linejoin="round" d="M -552.215506 640.456113 L 120.003216 -523.849026 L 792.213914 640.458892 Z M -552.215506 640.456113 " stroke="#030303" stroke-width="5" stroke-opacity="1" stroke-miterlimit="4"/><path stroke-linecap="round" transform="matrix(0.0931448, 0.059153, -0.059116, 0.093203, 753.485008, 888.574703)" fill="none" stroke-linejoin="round" d="M -552.219785 640.454704 L 119.984438 -523.850831 L 792.211206 640.456844 Z M -552.219785 640.454704 " stroke="#030303" stroke-width="5" stroke-opacity="1" stroke-miterlimit="4"/><path stroke-linecap="round" transform="matrix(0.048899, 0.0332511, -0.0332303, 0.0489296, 752.260577, 902.861398)" fill="none" stroke-linejoin="round" d="M -552.206441 640.430412 L 119.97667 -523.854857 L 792.17608 640.450176 Z M -552.206441 640.430412 " stroke="#030303" stroke-width="5" stroke-opacity="1" stroke-miterlimit="4"/></svg>